<svg width="281" height="235" viewBox="0 0 281 235" fill="none" xmlns="http://www.w3.org/2000/svg">
<circle cx="134" cy="116" r="4" transform="rotate(-90 134 116)" fill="#5F6368"/>
<circle cx="134" cy="84" r="4" transform="rotate(-90 134 84)" fill="#5F6368"/>
<circle cx="166" cy="116" r="4" transform="rotate(-90 166 116)" fill="#5F6368"/>
<circle cx="166" cy="84" r="4" transform="rotate(-90 166 84)" fill="#5F6368"/>
<circle cx="198" cy="116" r="4" transform="rotate(-90 198 116)" fill="#5F6368"/>
<circle cx="213" cy="162" r="13" stroke="#5F6368" stroke-width="2"/>
<circle cx="267" cy="221" r="13" stroke="#5F6368" stroke-width="2"/>
<path d="M46 104L71 79" stroke="#5F6368" stroke-width="2"/>
<path d="M97 53L122 26" stroke="#5F6368" stroke-width="2"/>
<path d="M46 27L71 52" stroke="#5F6368" stroke-width="2"/>
<path d="M98 79L122 103" stroke="#5F6368" stroke-width="2"/>
<rect x="21" y="1" width="26.1928" height="26.1928" stroke="#5F6368" stroke-width="2"/>
<rect x="21" y="102.807" width="26.1928" height="26.1928" stroke="#5F6368" stroke-width="2"/>
<rect x="121" y="1" width="26.1928" height="26.1928" fill="#5F6368" stroke="#5F6368" stroke-width="2"/>
<rect x="117" y="99" width="34" height="34" rx="17" stroke="#5F6368" stroke-width="2"/>
<rect x="70.1204" y="51.6868" width="28.1928" height="28.1928" stroke="#5F6368" stroke-width="2"/>
<path fill-rule="evenodd" clip-rule="evenodd" d="M127.257 163H-29C-29.5523 163 -30 162.552 -30 162V162C-30 161.448 -29.5523 161 -29 161H128.743L188.743 221H255V223H188.257L127.257 163Z" fill="#5F6368"/>
<path fill-rule="evenodd" clip-rule="evenodd" d="M199 163L128 163V161L199 161V163Z" fill="#5F6368"/>
</svg>
