<?xml version="1.0" encoding="UTF-8"?>
<svg id="Layer_1" xmlns="http://www.w3.org/2000/svg" version="1.1" viewBox="0 0 799 783">
  <!-- Generator: Adobe Illustrator 29.4.0, SVG Export Plug-In . SVG Version: 2.1.0 Build 152)  -->
  <defs>
    <style>
      .st0 {
        fill: #90caf9;
      }

      .st1 {
        stroke-width: 2px;
      }

      .st1, .st2 {
        fill: none;
        stroke: #5f6368;
      }

      .st3 {
        fill-rule: evenodd;
      }

      .st3, .st4 {
        fill: #5f6368;
      }

      .st2 {
        stroke-miterlimit: 4;
        stroke-width: 2px;
      }
    </style>
  </defs>
  <circle class="st4" cx="310" cy="98" r="4"/>
  <circle class="st4" cx="276" cy="115" r="4"/>
  <circle class="st4" cx="229.5" cy="80.5" r="4.5"/>
  <circle class="st4" cx="339" cy="98" r="4"/>
  <circle class="st4" cx="368" cy="98" r="4"/>
  <circle class="st4" cx="397" cy="98" r="4"/>
  <circle class="st4" cx="426" cy="98" r="4"/>
  <circle class="st4" cx="455" cy="98" r="4"/>
  <circle class="st4" cx="31" cy="386" r="4"/>
  <circle class="st4" cx="55" cy="386" r="4"/>
  <circle class="st4" cx="79" cy="386" r="4"/>
  <circle class="st4" cx="103" cy="386" r="4"/>
  <circle class="st4" cx="31" cy="410" r="4"/>
  <circle class="st4" cx="55" cy="410" r="4"/>
  <circle class="st4" cx="79" cy="410" r="4"/>
  <circle class="st4" cx="103" cy="410" r="4"/>
  <circle class="st4" cx="31" cy="434" r="4"/>
  <circle class="st4" cx="55" cy="434" r="4"/>
  <circle class="st4" cx="555" cy="73" r="4"/>
  <circle class="st4" cx="583" cy="73" r="4"/>
  <circle class="st4" cx="611" cy="73" r="4"/>
  <circle class="st4" cx="639" cy="73" r="4"/>
  <circle class="st4" cx="555" cy="101" r="4"/>
  <circle class="st4" cx="583" cy="101" r="4"/>
  <circle class="st0" cx="611" cy="101" r="4"/>
  <circle class="st4" cx="555" cy="129" r="4"/>
  <circle class="st4" cx="583" cy="129" r="4"/>
  <circle class="st1" cx="43" cy="354" r="12"/>
  <circle class="st1" cx="148" cy="146" r="12"/>
  <circle class="st1" cx="276" cy="115" r="10"/>
  <circle class="st1" cx="282" cy="72" r="10"/>
  <circle class="st1" cx="116.5" cy="288.5" r="12.5"/>
  <circle class="st1" cx="611" cy="101" r="10"/>
  <path class="st4" d="M42,365h2v84c0,.55-.45,1-1,1h0c-.55,0-1-.45-1-1v-84Z"/>
  <circle class="st2" cx="92" cy="339" r="6"/>
  <path class="st4" d="M98,338v2h56c.55,0,1-.45,1-1h0c0-.55-.45-1-1-1h-56Z"/>
  <path class="st4" d="M37,223c0-.55.45-1,1-1h0c.55,0,1,.45,1,1v60c0,.55-.45,1-1,1h0c-.55,0-1-.45-1-1v-60Z"/>
  <circle class="st1" cx="528" cy="15" r="14"/>
  <path class="st4" d="M527,29h2v128c0,.55-.45,1-1,1h0c-.55,0-1-.45-1-1V29Z"/>
  <path class="st4" d="M118,276h-2v-64c0-.55.45-1,1-1h0c.55,0,1,.45,1,1v64Z"/>
  <path class="st4" d="M286,116v-2h64c.55,0,1,.45,1,1h0c0,.55-.45,1-1,1h-64Z"/>
  <path class="st4" d="M621,102v-2h64c.55,0,1,.45,1,1h0c0,.55-.45,1-1,1h-64Z"/>
  <path class="st3" d="M23.5,288.96v-60.96c0-.55-.45-1-1-1h0c-.55,0-1,.45-1,1v62.04l60.96,60.96h67.04c.55,0,1-.45,1-1h0c0-.55-.45-1-1-1h-65.96l-60.04-60.04Z"/>
  <path class="st3" d="M54,283.39v-45.39c0-.55-.45-1-1-1h0c-.55,0-1,.45-1,1v46.48l46.63,46.02h50.87c.55,0,1-.45,1-1h0c0-.55-.45-1-1-1h-49.82l-45.68-45.11Z"/>
  <path class="st3" d="M183.39,179.5h-30.39c-.55,0-1,.45-1,1h0c0,.55.45,1,1,1h31.48l46.02-46.63v-50.87c0-.55-.45-1-1-1h0c-.55,0-1,.45-1,1v49.82l-45.11,45.68Z"/>
  <path class="st3" d="M494.03,102.36v30.66c0,.54.44.98.98.98h0c.54,0,.98-.44.98-.98v-31.76l-30.11-30.26h-172.88c-.56,0-1.01.45-1.01,1.01h0c0,.56.45,1.01,1.01,1.01h171.85l29.18,29.34Z"/>
  <path class="st3" d="M83.5,213.74l57.12-58.12-1.24-1.24-57.88,57.88v64.24c0,.55.45,1,1,1h0c.55,0,1-.45,1-1v-62.76Z"/>
  <circle class="st4" cx="38" cy="287" r="4"/>
</svg>